<svg width="498" height="64" viewBox="0 0 498 64" fill="none" xmlns="http://www.w3.org/2000/svg">
<mask id="mask0_193_4988" style="mask-type:luminance" maskUnits="userSpaceOnUse" x="0" y="0" width="498" height="64">
<path d="M497.971 0.957031H0.753906V63.366H497.971V0.957031Z" fill="white"/>
</mask>
<g mask="url(#mask0_193_4988)">
<path fill-rule="evenodd" clip-rule="evenodd" d="M38.7656 1.60156V17.7817H32.4092C24.3833 17.7817 17.8984 24.2023 17.8984 32.0998C17.8984 39.9972 24.3833 46.4179 32.4092 46.4179H38.7656V62.5337C53.2763 59.7729 64.1273 47.2526 64.1273 32.0356C64.0631 17.0112 53.2763 4.42666 38.7656 1.60156Z" fill="#003791"/>
</g>
<mask id="mask1_193_4988" style="mask-type:luminance" maskUnits="userSpaceOnUse" x="0" y="0" width="498" height="64">
<path d="M497.971 0.957031H0.753906V63.366H497.971V0.957031Z" fill="white"/>
</mask>
<g mask="url(#mask1_193_4988)">
<path fill-rule="evenodd" clip-rule="evenodd" d="M32.4061 51.4252C21.5552 51.4252 12.7588 42.6931 12.7588 32.0348C12.7588 21.3765 21.5552 12.6444 32.4061 12.6444H33.626V0.894531H32.4061C15.0061 0.894531 0.816406 14.8274 0.816406 32.0348C0.816406 49.3064 15.0061 63.3035 32.4061 63.3035H33.626V51.4252H32.4061Z" fill="#FF4B5F"/>
</g>
<mask id="mask2_193_4988" style="mask-type:luminance" maskUnits="userSpaceOnUse" x="0" y="0" width="498" height="64">
<path d="M497.971 0.957031H0.753906V63.366H497.971V0.957031Z" fill="white"/>
</mask>
<g mask="url(#mask2_193_4988)">
<path d="M89.1019 52.2015C86.341 52.2015 83.7728 51.5594 81.2687 50.2753L83.9654 45.1387C85.4421 45.9734 87.1115 46.3586 88.9093 46.3586C91.285 46.3586 93.4038 44.9461 95.2016 42.121L78.5078 12.5859H86.4052L98.8613 35.2509L109.841 12.5859H117.417L101.815 43.0199C98.7329 49.1195 94.4953 52.2015 89.1019 52.2015Z" fill="#003791"/>
</g>
<mask id="mask3_193_4988" style="mask-type:luminance" maskUnits="userSpaceOnUse" x="0" y="0" width="498" height="64">
<path d="M497.971 0.957031H0.753906V63.366H497.971V0.957031Z" fill="white"/>
</mask>
<g mask="url(#mask3_193_4988)">
<path d="M121.785 51.5533V12.5156H128.848V28.76H147.917V12.5156H154.98V51.5533H147.917V35.1164H128.848V51.5533H121.785Z" fill="#003791"/>
</g>
<mask id="mask4_193_4988" style="mask-type:luminance" maskUnits="userSpaceOnUse" x="0" y="0" width="498" height="64">
<path d="M497.971 0.957031H0.753906V63.366H497.971V0.957031Z" fill="white"/>
</mask>
<g mask="url(#mask4_193_4988)">
<path d="M162.938 51.5533V12.5156H169.872V41.0234L190.097 12.5156H196.71V51.5533H189.776V23.1097L169.615 51.5533H162.938Z" fill="#003791"/>
</g>
<mask id="mask5_193_4988" style="mask-type:luminance" maskUnits="userSpaceOnUse" x="0" y="0" width="498" height="64">
<path d="M497.971 0.957031H0.753906V63.366H497.971V0.957031Z" fill="white"/>
</mask>
<g mask="url(#mask5_193_4988)">
<path d="M211.739 45.5179H223.425C225.864 45.5179 227.726 45.0684 229.075 44.1053C230.423 43.2064 231.129 41.7939 231.129 40.0603C231.129 36.5932 228.369 34.7954 222.911 34.7954H211.739V45.5179ZM211.739 29.0168H221.37C223.681 29.0168 225.543 28.5673 226.892 27.6684C228.24 26.7695 228.946 25.357 228.946 23.6234C228.946 22.0825 228.304 20.8625 227.084 20.0278C225.864 19.1289 224.131 18.6795 221.884 18.6795H211.739V29.0168ZM204.805 51.5533V12.5156H222.783C227.405 12.5156 230.873 13.6714 233.248 15.9828C235.046 17.7164 235.945 19.8994 235.945 22.5319C235.945 26.3843 234.019 29.2736 230.231 31.1998C235.56 32.9334 238.192 36.1437 238.192 40.7666C238.192 44.1695 236.844 46.802 234.211 48.664C231.579 50.526 227.919 51.4249 223.425 51.4249H204.805V51.5533Z" fill="#003791"/>
</g>
<mask id="mask6_193_4988" style="mask-type:luminance" maskUnits="userSpaceOnUse" x="0" y="0" width="498" height="64">
<path d="M497.971 0.957031H0.753906V63.366H497.971V0.957031Z" fill="white"/>
</mask>
<g mask="url(#mask6_193_4988)">
<path d="M243.773 51.5533V12.5156H273.501V18.6795H250.836V28.8241H270.869V34.988H250.836V45.4537H273.758V51.5533H243.773Z" fill="#003791"/>
</g>
<mask id="mask7_193_4988" style="mask-type:luminance" maskUnits="userSpaceOnUse" x="0" y="0" width="498" height="64">
<path d="M497.971 0.957031H0.753906V63.366H497.971V0.957031Z" fill="white"/>
</mask>
<g mask="url(#mask7_193_4988)">
<path d="M286.856 32.8692H295.01C297.642 32.8692 299.761 32.2271 301.302 30.943C302.843 29.6588 303.678 27.9252 303.678 25.8064C303.678 23.5592 302.907 21.8898 301.302 20.6699C299.761 19.45 297.707 18.8079 295.01 18.8079H286.856V32.8692ZM279.793 51.5533V12.5156H295.588C300.211 12.5156 303.935 13.7356 306.696 16.1112C309.456 18.4869 310.805 21.6972 310.805 25.678C310.805 29.8514 309.264 33.126 306.246 35.5017C303.228 37.8131 299.44 39.033 294.817 39.033H286.856V51.5533H279.793Z" fill="#003791"/>
</g>
<mask id="mask8_193_4988" style="mask-type:luminance" maskUnits="userSpaceOnUse" x="0" y="0" width="498" height="64">
<path d="M497.971 0.957031H0.753906V63.366H497.971V0.957031Z" fill="white"/>
</mask>
<g mask="url(#mask8_193_4988)">
<path d="M334.311 52.2632C328.532 52.2632 323.652 50.337 319.8 46.4846C315.883 42.568 313.957 37.8167 313.957 32.1023C313.957 26.4521 315.883 21.7008 319.8 17.7842C323.716 13.8676 328.596 11.9414 334.632 11.9414C338.099 11.9414 341.052 12.455 343.428 13.4823C345.868 14.5097 348.179 16.0506 350.298 17.9768L345.804 23.0492C342.208 19.8388 338.484 18.1695 334.567 18.1695C330.779 18.1695 327.569 19.5178 325.065 22.2145C322.561 24.9112 321.341 28.1857 321.341 32.1023C321.341 35.9547 322.625 39.2293 325.129 41.9901C327.633 44.6868 330.779 46.0352 334.567 46.0352C336.879 46.0352 338.869 45.6499 340.603 44.8153C342.336 43.9806 344.198 42.6964 346.06 40.9628L350.555 45.3931C348.308 47.7045 345.932 49.4381 343.428 50.5939C340.924 51.6854 337.906 52.2632 334.311 52.2632Z" fill="#003791"/>
</g>
<mask id="mask9_193_4988" style="mask-type:luminance" maskUnits="userSpaceOnUse" x="0" y="0" width="498" height="64">
<path d="M497.971 0.957031H0.753906V63.366H497.971V0.957031Z" fill="white"/>
</mask>
<g mask="url(#mask9_193_4988)">
<path d="M355.688 51.5533V12.5156H362.622V41.0234L382.847 12.5156H389.46V51.5533H382.526V23.1097L362.301 51.5533H355.688Z" fill="#003791"/>
</g>
<mask id="mask10_193_4988" style="mask-type:luminance" maskUnits="userSpaceOnUse" x="0" y="0" width="498" height="64">
<path d="M497.971 0.957031H0.753906V63.366H497.971V0.957031Z" fill="white"/>
</mask>
<g mask="url(#mask10_193_4988)">
<path d="M407.377 51.5533V18.8721H394.664V12.5156H427.153V18.8721H414.44V51.5533H407.377Z" fill="#003791"/>
</g>
<mask id="mask11_193_4988" style="mask-type:luminance" maskUnits="userSpaceOnUse" x="0" y="0" width="498" height="64">
<path d="M497.971 0.957031H0.753906V63.366H497.971V0.957031Z" fill="white"/>
</mask>
<g mask="url(#mask11_193_4988)">
<path d="M432.355 51.5533V12.5156H462.019V18.6795H439.354V28.8241H459.451V34.988H439.354V45.4537H462.34V51.5533H432.355Z" fill="#003791"/>
</g>
<mask id="mask12_193_4988" style="mask-type:luminance" maskUnits="userSpaceOnUse" x="0" y="0" width="498" height="64">
<path d="M497.971 0.957031H0.753906V63.366H497.971V0.957031Z" fill="white"/>
</mask>
<g mask="url(#mask12_193_4988)">
<path d="M478.193 51.5533V18.8721H465.48V12.5156H497.969V18.8721H485.32V51.5533H478.193Z" fill="#003791"/>
</g>
</svg>
